<svg width="53" height="53" viewBox="0 0 53 53" fill="none" xmlns="http://www.w3.org/2000/svg">
<g clip-path="url(#clip0_884_2338)">
<path d="M12.9123 39.3781L17.6373 42.3781C18.2466 42.7625 18.9966 42.1906 18.8185 41.4875L17.4498 36.1063C17.4127 35.9571 17.4186 35.8005 17.4667 35.6546C17.5148 35.5086 17.6032 35.3792 17.7216 35.2813L21.9591 31.7469C22.5123 31.2875 22.231 30.3594 21.5091 30.3125L15.9779 29.9563C15.827 29.9475 15.6819 29.8949 15.5603 29.805C15.4388 29.7151 15.3461 29.5918 15.2935 29.45L13.231 24.2563C13.1764 24.1062 13.0769 23.9765 12.9461 23.8849C12.8153 23.7933 12.6595 23.7441 12.4998 23.7441C12.34 23.7441 12.1842 23.7933 12.0534 23.8849C11.9226 23.9765 11.8231 24.1062 11.7685 24.2563L9.706 29.45C9.65344 29.5918 9.56072 29.7151 9.43918 29.805C9.31764 29.8949 9.17255 29.9475 9.02163 29.9563L3.49038 30.3125C2.7685 30.3594 2.48725 31.2875 3.04038 31.7469L7.27788 35.2813C7.39632 35.3792 7.48468 35.5086 7.53278 35.6546C7.58088 35.8005 7.58676 35.9571 7.54975 36.1063L6.28413 41.0938C6.0685 41.9375 6.9685 42.6219 7.69038 42.1625L12.0873 39.3781C12.2105 39.2997 12.3536 39.2581 12.4998 39.2581C12.6459 39.2581 12.789 39.2997 12.9123 39.3781V39.3781Z" stroke="white" stroke-width="2.3" stroke-linecap="round" stroke-linejoin="round"/>
<path d="M26.9127 22.3781L31.6377 25.3781C32.2471 25.7625 32.9971 25.1906 32.819 24.4875L31.4502 19.1063C31.4132 18.9571 31.4191 18.8005 31.4672 18.6546C31.5153 18.5086 31.6037 18.3792 31.7221 18.2813L35.9596 14.7469C36.5127 14.2875 36.2315 13.3594 35.5096 13.3125L29.9784 12.9563C29.8274 12.9475 29.6823 12.8949 29.5608 12.805C29.4393 12.7151 29.3466 12.5918 29.294 12.45L27.2315 7.25627C27.1769 7.10618 27.0774 6.97653 26.9466 6.88491C26.8158 6.79329 26.66 6.74414 26.5002 6.74414C26.3405 6.74414 26.1847 6.79329 26.0539 6.88491C25.923 6.97653 25.8236 7.10618 25.769 7.25627L23.7065 12.45C23.6539 12.5918 23.5612 12.7151 23.4397 12.805C23.3181 12.8949 23.173 12.9475 23.0221 12.9563L17.4909 13.3125C16.769 13.3594 16.4877 14.2875 17.0409 14.7469L21.2784 18.2813C21.3968 18.3792 21.4852 18.5086 21.5333 18.6546C21.5814 18.8005 21.5873 18.9571 21.5502 19.1063L20.2846 24.0938C20.069 24.9375 20.969 25.6219 21.6909 25.1625L26.0877 22.3781C26.211 22.2997 26.3541 22.2581 26.5002 22.2581C26.6464 22.2581 26.7894 22.2997 26.9127 22.3781V22.3781Z" stroke="white" stroke-width="2.3" stroke-linecap="round" stroke-linejoin="round"/>
<path d="M40.9127 39.3781L45.6377 42.3781C46.2471 42.7625 46.9971 42.1906 46.819 41.4875L45.4502 36.1063C45.4132 35.9571 45.4191 35.8005 45.4672 35.6546C45.5153 35.5086 45.6037 35.3792 45.7221 35.2813L49.9596 31.7469C50.5127 31.2875 50.2315 30.3594 49.5096 30.3125L43.9784 29.9563C43.8274 29.9475 43.6823 29.8949 43.5608 29.805C43.4393 29.7151 43.3466 29.5918 43.294 29.45L41.2315 24.2563C41.1769 24.1062 41.0774 23.9765 40.9466 23.8849C40.8158 23.7933 40.66 23.7441 40.5002 23.7441C40.3405 23.7441 40.1847 23.7933 40.0539 23.8849C39.923 23.9765 39.8236 24.1062 39.769 24.2563L37.7065 29.45C37.6539 29.5918 37.5612 29.7151 37.4397 29.805C37.3181 29.8949 37.173 29.9475 37.0221 29.9563L31.4909 30.3125C30.769 30.3594 30.4877 31.2875 31.0409 31.7469L35.2784 35.2813C35.3968 35.3792 35.4852 35.5086 35.5333 35.6546C35.5814 35.8005 35.5873 35.9571 35.5502 36.1063L34.2846 41.0938C34.069 41.9375 34.969 42.6219 35.6909 42.1625L40.0877 39.3781C40.211 39.2997 40.3541 39.2581 40.5002 39.2581C40.6464 39.2581 40.7894 39.2997 40.9127 39.3781V39.3781Z" stroke="white" stroke-width="2.3" stroke-linecap="round" stroke-linejoin="round"/>
</g>
<defs>
<clipPath id="clip0_884_2338">
<rect width="52" height="52" fill="white" transform="translate(0.5 0.5)"/>
</clipPath>
</defs>
</svg>
