<svg width="53" height="53" viewBox="0 0 53 53" fill="none" xmlns="http://www.w3.org/2000/svg">
<path d="M26.5 37.0625C30.9873 37.0625 34.625 33.4248 34.625 28.9375C34.625 24.4502 30.9873 20.8125 26.5 20.8125C22.0127 20.8125 18.375 24.4502 18.375 28.9375C18.375 33.4248 22.0127 37.0625 26.5 37.0625Z" stroke="white" stroke-width="3" stroke-linecap="round" stroke-linejoin="round"/>
<path d="M40.3125 24.0625C42.2051 24.0594 44.0723 24.4985 45.7651 25.3449C47.4579 26.1913 48.9295 27.4215 50.0625 28.9375" stroke="white" stroke-width="3" stroke-linecap="round" stroke-linejoin="round"/>
<path d="M2.9375 28.9375C4.07053 27.4215 5.54213 26.1913 7.23493 25.3449C8.92773 24.4985 10.7949 24.0594 12.6875 24.0625" stroke="white" stroke-width="3" stroke-linecap="round" stroke-linejoin="round"/>
<path d="M14.7998 44.3747C15.8699 42.1831 17.534 40.3362 19.6026 39.0443C21.6711 37.7524 24.061 37.0674 26.4998 37.0674C28.9387 37.0674 31.3285 37.7524 33.397 39.0443C35.4656 40.3362 37.1297 42.1831 38.1998 44.3747" stroke="white" stroke-width="3" stroke-linecap="round" stroke-linejoin="round"/>
<path d="M12.6873 24.0625C11.4536 24.0637 10.245 23.7139 9.20275 23.0538C8.16051 22.3937 7.32765 21.4506 6.80148 20.3347C6.27532 19.2189 6.07758 17.9763 6.23137 16.7522C6.38516 15.5281 6.88413 14.3731 7.66998 13.4221C8.45583 12.4711 9.4961 11.7633 10.6692 11.3816C11.8424 10.9998 13.0999 10.9598 14.295 11.2662C15.49 11.5725 16.5732 12.2127 17.4179 13.1118C18.2627 14.011 18.8341 15.1319 19.0654 16.3437" stroke="white" stroke-width="3" stroke-linecap="round" stroke-linejoin="round"/>
<path d="M33.9346 16.3437C34.1659 15.1319 34.7373 14.011 35.582 13.1118C36.4268 12.2127 37.5099 11.5725 38.705 11.2662C39.9 10.9598 41.1576 10.9998 42.3307 11.3816C43.5039 11.7633 44.5441 12.4711 45.33 13.4221C46.1158 14.3731 46.6148 15.5281 46.7686 16.7522C46.9224 17.9763 46.7246 19.2189 46.1985 20.3347C45.6723 21.4506 44.8394 22.3937 43.7972 23.0538C42.755 23.7139 41.5464 24.0637 40.3127 24.0625" stroke="white" stroke-width="3" stroke-linecap="round" stroke-linejoin="round"/>
</svg>
